<?xml version="1.0" standalone="no"?>
<!DOCTYPE svg PUBLIC "-//W3C//DTD SVG 20010904//EN"
 "http://www.w3.org/TR/2001/REC-SVG-20010904/DTD/svg10.dtd">
<svg version="1.0" xmlns="http://www.w3.org/2000/svg"
 width="2048.000000pt" height="2048.000000pt" viewBox="0 0 2048.000000 2048.000000"
 preserveAspectRatio="xMidYMid meet">

<g transform="translate(0.000000,2048.000000) scale(0.100000,-0.100000)"
fill="#000000" stroke="none">
<path d="M7175 16167 c-82 -47 -287 -158 -455 -247 -168 -90 -375 -200 -460
-246 -85 -46 -261 -139 -390 -206 l-235 -124 -49 -84 c-26 -47 -129 -242 -228
-435 -99 -192 -200 -387 -224 -431 l-44 -81 -322 -230 c-178 -126 -422 -299
-543 -383 -121 -85 -223 -158 -226 -163 -7 -10 -49 -271 -49 -305 0 -18 -110
-110 -527 -443 -291 -231 -652 -521 -804 -643 -152 -123 -338 -270 -412 -327
-75 -57 -134 -108 -133 -114 5 -15 427 -633 516 -756 60 -82 84 -125 105 -190
15 -46 50 -144 76 -217 l48 -133 328 -336 c358 -366 341 -354 342 -238 1 66
17 217 26 246 6 18 8 18 58 -2 107 -42 188 -92 237 -146 50 -55 125 -192 112
-204 -4 -4 -52 -13 -107 -21 l-100 -14 2 -40 c5 -85 -19 -359 -47 -543 -17
-107 -30 -205 -30 -218 0 -22 113 -254 203 -417 l43 -79 115 -32 c139 -40
1042 -304 1192 -349 l107 -33 20 71 c66 226 144 466 165 501 23 39 195 260
273 352 46 53 51 52 142 -9 160 -106 256 -349 244 -613 -11 -229 -72 -401
-277 -783 -47 -86 -88 -170 -91 -187 -7 -34 -62 -440 -101 -740 -14 -110 -37
-280 -51 -379 -14 -98 -23 -180 -21 -182 3 -3 20 14 38 38 19 24 97 119 173
212 114 138 141 176 146 210 4 22 40 200 79 395 l73 354 153 311 c162 330 269
561 330 715 35 89 37 100 32 175 -6 91 -43 206 -103 315 -53 97 -192 278 -268
349 -36 34 -66 63 -66 65 0 3 39 8 86 12 l86 7 55 -54 c143 -139 298 -366 352
-514 28 -76 61 -252 61 -323 0 -34 -141 -299 -450 -846 -138 -246 -136 -237
-170 -518 -21 -168 -21 -214 1 -175 5 9 24 34 42 56 32 38 34 46 46 165 6 69
18 148 25 176 11 45 290 557 321 590 10 11 18 -2 44 -69 47 -122 47 -125 6
-236 -20 -54 -43 -110 -52 -122 -8 -13 -16 -36 -18 -52 -5 -36 -160 -418 -325
-798 -73 -167 -130 -305 -128 -307 2 -3 40 20 84 49 98 65 421 265 441 273 14
5 14 3 0 -18 -17 -25 -170 -347 -264 -554 -221 -485 -342 -774 -491 -1170
-123 -328 -320 -920 -310 -930 2 -2 29 28 59 68 167 215 534 622 760 842 163
158 381 360 431 399 80 61 575 292 1063 496 121 51 262 110 313 132 52 22 95
38 97 36 5 -5 -116 -139 -371 -409 l-223 -237 112 35 c62 19 216 68 342 108
127 40 307 97 400 125 94 29 312 96 485 150 173 54 362 112 420 130 58 17 170
52 249 77 l144 45 131 126 c268 260 571 476 906 646 373 190 749 328 1135 416
328 75 489 96 1005 130 l305 20 255 76 c140 41 424 130 630 196 258 83 401
124 460 132 47 6 94 18 106 26 12 8 133 121 270 251 137 130 263 249 281 265
l32 29 61 495 c33 272 63 502 65 511 3 9 -38 74 -100 158 l-106 142 53 47 c29
26 76 67 104 92 l51 45 16 100 c18 111 65 459 97 719 16 138 18 173 8 187 -23
31 -214 272 -273 344 l-57 70 163 12 c494 35 882 77 1529 163 162 22 372 49
465 60 209 25 766 102 762 106 -1 1 -94 23 -207 49 -885 199 -1708 488 -2283
801 -131 71 -391 225 -512 302 -50 32 -57 33 -350 67 -419 49 -1640 204 -1734
220 -18 4 -31 8 -29 10 6 6 261 23 753 50 253 14 489 27 525 30 36 3 261 16
500 30 239 14 586 34 770 45 l335 19 495 172 c272 94 527 181 565 194 39 12
225 78 415 145 190 67 390 137 445 155 55 18 206 69 335 114 l235 81 -350 0
c-193 0 -408 3 -480 5 -71 3 -242 10 -380 15 -543 22 -933 56 -1368 121 -289
43 -593 95 -1327 229 -263 47 -274 50 -268 55 4 4 915 170 1001 182 20 3 37 9
37 12 0 7 -149 57 -735 245 -365 117 -580 184 -1070 336 -110 34 -355 110
-545 170 -190 60 -464 144 -610 188 l-265 80 -755 -5 c-466 -3 -751 -1 -745 5
6 5 42 19 80 32 212 69 1073 384 1195 437 16 7 -52 13 -420 37 -135 9 -409 27
-610 41 -442 30 -1130 76 -1645 110 -209 14 -411 27 -450 30 -38 3 -221 14
-405 25 -184 11 -443 27 -575 35 -132 8 -301 17 -375 20 l-135 5 -150 -83z
m915 -267 c1063 -41 1310 -51 1510 -60 215 -10 836 -36 1100 -46 148 -5 207
-11 199 -19 -2 -2 -74 -24 -159 -50 -85 -26 -281 -87 -435 -137 l-280 -90
-1050 4 c-928 3 -1069 1 -1215 -14 -91 -9 -200 -20 -243 -23 l-77 -7 -88 -76
c-174 -154 -561 -483 -715 -609 l-158 -130 -143 -6 c-79 -4 -158 -10 -177 -13
-33 -6 -31 -3 57 87 50 52 151 159 224 239 138 150 545 581 731 775 58 60 125
131 149 158 l43 47 106 -5 c58 -3 338 -14 621 -25z m-1375 -321 c-137 -138
-354 -313 -697 -563 -104 -76 -109 -82 -162 -175 -29 -53 -84 -147 -120 -210
l-66 -115 -73 -26 c-40 -15 -83 -32 -95 -39 -29 -15 297 646 330 670 13 9 79
47 148 84 69 38 166 92 215 120 50 29 180 103 290 165 110 63 225 128 255 147
30 18 57 33 60 33 2 0 -36 -41 -85 -91z m1342 -228 c-165 -98 -269 -169 -479
-327 -258 -194 -465 -363 -596 -488 -48 -47 -54 -50 -80 -39 -15 6 -91 38
-170 70 l-142 60 76 64 c71 59 164 139 640 550 l169 146 215 12 c278 15 309
17 404 19 l80 2 -117 -69z m-1609 -157 c-89 -112 -172 -222 -292 -389 -64 -88
-124 -171 -134 -183 -15 -19 -37 -27 -120 -41 -56 -9 -102 -14 -102 -11 0 3
13 26 28 51 15 24 55 93 87 152 l60 109 110 78 c61 43 177 129 258 189 82 61
151 111 153 111 2 0 -19 -30 -48 -66z m5628 -28 c150 -47 671 -195 1064 -301
593 -160 1289 -362 1270 -369 -8 -2 -71 -12 -140 -21 -578 -73 -1032 -131
-1287 -164 l-301 -40 -99 36 c-54 19 -246 86 -428 147 l-330 112 -1315 -8
c-723 -4 -1319 -3 -1323 1 -10 10 -91 153 -207 368 -72 133 -85 163 -71 167
14 4 365 88 416 99 11 3 610 5 1331 6 l1311 1 109 -34z m-3298 -449 c100 -199
183 -366 182 -372 0 -5 -45 -107 -99 -225 -54 -118 -117 -255 -140 -305 -23
-49 -72 -150 -109 -224 l-68 -134 -145 -67 c-79 -36 -152 -69 -161 -73 -10 -3
9 33 46 91 121 185 159 266 293 631 25 68 62 167 83 220 37 91 38 96 22 116
-9 12 -75 98 -145 191 -71 93 -132 170 -136 172 -10 4 -554 -187 -761 -266
-194 -74 -402 -161 -413 -172 -17 -16 217 35 942 204 l144 34 31 -37 c17 -20
51 -57 74 -83 l44 -47 -31 -93 c-16 -51 -55 -178 -86 -283 -30 -104 -66 -219
-79 -255 l-23 -64 -12 74 c-7 41 -15 82 -20 90 -4 8 -52 33 -107 55 -54 22
-101 41 -103 42 -2 2 16 45 42 96 55 112 81 176 75 183 -5 5 -97 -2 -498 -35
l-204 -17 -91 29 c-49 16 -130 39 -179 52 -49 14 -90 26 -92 28 -6 6 236 213
339 291 48 36 107 75 130 87 23 12 117 66 208 121 l166 99 241 70 c133 38 288
84 344 103 57 19 105 34 108 35 3 0 87 -162 188 -362z m-2180 -294 c100 -32
182 -60 182 -63 0 -3 -22 -20 -48 -37 -59 -40 -274 -247 -248 -239 36 12 387
76 414 76 32 0 322 -90 322 -100 0 -6 -445 -196 -705 -300 -77 -31 -87 -40
-265 -214 -102 -100 -228 -223 -281 -274 l-96 -94 -291 2 c-322 1 -296 4 -566
-76 -82 -24 -152 -43 -156 -42 -3 2 -39 40 -79 86 l-73 83 41 47 c246 281 423
502 381 477 -61 -36 -550 -486 -550 -505 0 -11 102 -143 162 -210 72 -80 82
-103 64 -139 -24 -45 -108 -115 -235 -193 -64 -40 -233 -151 -376 -247 -143
-96 -290 -195 -327 -219 -103 -67 -90 -75 32 -18 19 8 131 56 248 106 117 50
244 106 282 125 39 19 70 32 70 28 0 -4 -75 -83 -167 -177 -93 -93 -148 -155
-123 -137 25 19 182 125 350 236 168 111 347 233 398 269 l93 67 122 -4 c84
-3 131 -1 152 8 27 11 221 153 361 265 61 49 129 65 429 105 110 15 204 31
209 36 6 5 -52 9 -141 9 -243 0 -237 -12 -70 149 78 75 189 182 247 238 117
115 83 97 520 278 96 40 234 98 307 128 l132 56 253 26 c139 14 263 28 276 30
12 3 22 2 22 -2 0 -11 -157 -193 -233 -270 -34 -35 -57 -63 -52 -63 6 0 53 7
105 15 52 8 148 15 213 15 112 0 118 -1 112 -19 -3 -11 -16 -62 -29 -114 -13
-53 -27 -100 -31 -106 -4 -8 -144 -11 -449 -11 l-442 0 -142 -105 c-78 -57
-199 -143 -269 -190 l-127 -86 -54 -102 c-30 -56 -148 -286 -262 -512 l-208
-410 -74 -40 c-105 -57 -148 -85 -148 -98 0 -6 -8 -19 -17 -30 -18 -20 -17
-20 12 -13 17 4 86 31 155 60 l125 52 43 80 c24 43 142 275 263 514 244 484
209 435 399 563 58 39 155 107 215 151 l110 81 423 5 c278 3 422 2 422 -5 0
-5 -13 -59 -29 -119 l-28 -109 100 -47 100 -47 -89 -7 c-49 -4 -190 -18 -314
-31 -124 -13 -341 -36 -483 -51 -141 -15 -256 -29 -254 -31 4 -3 149 -13 702
-48 138 -8 387 -24 555 -35 168 -11 375 -22 460 -26 85 -3 169 -7 187 -9 25
-3 69 -37 206 -162 95 -87 265 -241 378 -343 204 -185 470 -431 844 -780 110
-103 241 -223 290 -268 l90 -81 280 -1 c308 -1 422 -9 475 -33 32 -14 -29 -15
-730 -16 l-765 -1 -121 103 c-67 56 -186 156 -264 222 -79 66 -207 174 -284
241 -78 66 -276 232 -441 369 -165 136 -324 269 -354 294 l-54 45 -876 218
c-482 119 -880 217 -885 218 -13 0 26 -28 179 -130 233 -155 367 -255 420
-311 l50 -54 -147 -5 -147 -5 -38 -36 c-59 -55 -274 -250 -428 -389 -77 -69
-167 -150 -200 -181 -33 -31 -118 -107 -190 -169 -71 -62 -161 -142 -199 -178
-80 -76 -61 -69 -557 -201 -375 -99 -487 -127 -493 -120 -2 2 -2 45 1 95 l6
91 146 46 c80 26 211 65 291 87 253 72 227 58 337 183 125 142 164 193 156
201 -3 3 -27 6 -52 6 -38 0 -49 -4 -61 -24 -8 -13 -53 -69 -100 -124 l-84
-100 -161 -47 c-224 -66 -438 -125 -452 -125 -7 0 -13 10 -13 23 0 34 -46 74
-225 192 -156 104 -412 241 -435 233 -7 -2 117 -100 274 -218 354 -264 346
-250 159 -304 -114 -33 -352 -107 -871 -268 -89 -28 -160 -53 -158 -55 7 -8
931 206 1094 253 30 9 55 14 57 12 2 -2 1 -45 -2 -96 l-6 -91 -31 -10 c-17 -6
-175 -51 -351 -100 -341 -96 -510 -148 -484 -150 21 -1 643 113 758 140 51 12
95 18 99 15 3 -4 1 -31 -5 -61 -9 -40 -29 -79 -79 -150 l-67 -95 -66 0 c-108
0 -834 -30 -839 -35 -11 -11 202 -24 656 -41 100 -3 182 -9 182 -11 0 -3 -45
-70 -100 -149 -68 -96 -108 -145 -123 -148 -88 -19 -186 -16 -282 8 -199 49
-765 213 -929 269 l-69 23 -28 95 c-15 52 -39 128 -52 169 -20 58 -23 78 -14
90 44 55 397 448 527 585 100 106 390 445 390 457 0 11 19 23 -248 -149 -230
-148 -277 -175 -283 -168 -3 2 -59 13 -126 24 l-122 21 -178 -74 c-98 -41
-215 -88 -261 -106 -80 -31 -84 -31 -97 -14 -7 11 -31 44 -54 75 l-40 56 27
25 c15 14 187 153 382 309 370 294 556 444 675 540 39 31 196 156 350 278 154
123 285 231 291 242 6 10 24 91 40 180 28 154 31 163 59 184 17 12 219 156
450 320 231 165 461 328 510 364 141 101 525 276 695 316 66 16 400 70 455 74
11 0 102 -25 203 -56z m5612 -159 c102 -36 851 -289 1665 -561 814 -273 1484
-500 1490 -504 5 -5 -69 -9 -170 -9 -99 0 -369 -7 -600 -15 -777 -26 -1828
-53 -2215 -56 l-135 -1 -180 87 c-99 48 -389 191 -645 317 -256 127 -565 279
-687 339 l-223 109 -534 0 c-524 0 -535 0 -541 -20 -17 -54 -105 -78 -155 -43
-39 27 -49 45 -50 86 0 31 7 46 34 73 28 28 42 34 76 34 36 0 48 -6 76 -36
l34 -35 1191 0 1192 1 171 -101 c94 -56 262 -157 373 -225 l202 -124 465 0
c454 0 465 0 471 -20 11 -34 54 -60 102 -60 50 0 88 21 109 61 18 36 18 63 -1
103 -38 79 -161 89 -200 16 l-12 -22 -455 0 -455 -1 -234 145 c-129 79 -297
181 -375 226 l-141 82 -819 0 -819 0 -210 97 -209 98 504 7 c278 4 591 9 695
10 105 2 379 4 610 6 l420 2 185 -66z m1505 -159 c146 -33 1478 -297 1720
-341 275 -50 460 -74 625 -80 127 -5 1232 17 1520 31 58 3 101 3 95 0 -5 -2
-111 -29 -235 -60 -124 -30 -310 -77 -415 -105 -283 -74 -782 -203 -1016 -262
l-205 -52 -200 63 c-109 35 -390 125 -624 201 -559 182 -1297 420 -1587 512
-127 40 -229 75 -227 78 7 6 306 37 379 39 33 0 110 -10 170 -24z m-4425 -484
c362 -21 1262 -68 1500 -77 l155 -6 350 -178 c193 -97 478 -244 635 -327 476
-251 911 -479 979 -513 59 -29 79 -33 290 -55 233 -25 564 -63 991 -115 135
-16 286 -33 335 -36 50 -4 98 -10 108 -13 10 -4 -73 -17 -185 -30 -112 -12
-300 -36 -418 -51 -118 -16 -330 -43 -470 -60 -140 -17 -365 -47 -499 -66
l-244 -34 -138 57 -138 57 38 16 c71 32 92 106 48 171 -29 43 -75 59 -133 47
-41 -9 -46 -7 -96 30 -83 60 -605 401 -893 582 -143 90 -316 199 -383 242
l-124 78 -619 0 -619 0 -198 81 c-108 45 -265 110 -349 144 -84 34 -149 65
-146 69 3 3 15 4 27 1 12 -2 100 -9 196 -14z m1883 -482 c433 -274 765 -487
997 -641 230 -153 245 -165 242 -191 -2 -15 3 -41 12 -57 8 -17 13 -30 11 -30
-9 0 -327 134 -820 345 -252 108 -526 223 -820 345 -77 32 -273 114 -435 182
-162 68 -311 131 -330 139 l-35 14 60 6 c33 3 255 6 493 7 l432 2 193 -121z
m-1807 -59 c137 -16 335 -36 439 -44 l190 -15 180 -81 c522 -237 800 -364 912
-417 l102 -48 95 -148 c53 -82 96 -151 96 -153 0 -2 -100 -4 -223 -4 l-223 0
-79 93 c-44 50 -150 170 -235 266 -85 96 -168 189 -183 208 l-28 33 -261 0
c-247 0 -261 1 -289 21 -38 27 -157 78 -464 200 -269 107 -293 117 -284 118 4
1 119 -12 255 -29z m1218 -634 c118 -133 236 -267 262 -298 l48 -58 271 0 270
-1 55 -90 c127 -207 92 -175 305 -282 174 -88 811 -435 930 -506 l50 -30 -387
-1 -387 0 -188 103 c-103 57 -241 132 -306 166 l-117 63 -261 -9 -262 -8 -32
40 c-17 22 -84 108 -149 190 -65 83 -124 158 -132 168 -12 15 -34 17 -171 17
l-158 1 -165 159 -165 159 65 -14 c36 -7 122 -21 193 -31 70 -9 127 -21 127
-26 0 -4 24 -45 53 -91 l53 -82 57 -10 c31 -6 57 -8 57 -5 0 3 -56 71 -123
151 -67 81 -187 226 -267 322 l-145 176 -168 1 -169 0 -44 32 c-24 17 -44 33
-44 35 0 3 187 3 415 2 l414 -2 215 -241z m-2491 0 c83 -24 177 -49 208 -55
51 -11 72 -26 271 -189 118 -98 289 -240 379 -317 90 -76 250 -211 354 -299
105 -88 254 -216 333 -283 l143 -123 -143 0 -143 0 -116 103 c-240 212 -738
622 -1321 1090 -76 60 -138 111 -138 113 0 8 26 2 173 -40z m-682 -238 c94
-133 393 -534 493 -663 l77 -100 -48 -7 c-26 -3 -131 -7 -233 -7 -102 -1 -306
-5 -455 -11 -148 -5 -400 -12 -560 -15 -159 -3 -324 -8 -365 -11 l-74 -6 54
-51 c30 -28 136 -128 235 -222 99 -94 234 -222 300 -285 66 -62 121 -116 123
-120 2 -6 -224 -39 -398 -58 l-65 -7 60 -47 c115 -88 133 -82 -224 -74 l-314
7 -83 75 -83 75 -565 -3 c-311 -2 -566 0 -566 3 0 4 31 49 68 100 63 87 69 99
75 159 4 35 10 67 15 72 4 4 99 32 212 62 113 30 339 91 503 135 l299 80 57
53 c31 29 115 105 186 168 71 63 155 138 185 165 30 28 114 103 185 167 72 64
216 196 320 292 l190 175 161 0 162 1 73 -102z m7716 -34 c332 -153 948 -422
1086 -474 l87 -34 -32 -34 -33 -34 -205 6 c-619 20 -815 25 -1002 26 l-207 0
-108 78 c-59 43 -146 104 -192 135 l-84 57 -236 1 -236 0 236 64 c130 35 274
75 320 90 46 15 163 51 259 80 96 29 186 58 200 63 42 18 65 14 147 -24z
m-6974 -206 c150 -128 400 -341 553 -473 154 -132 300 -257 324 -277 l45 -37
-917 -1 c-622 0 -918 -3 -918 -10 0 -10 368 -502 491 -657 33 -41 59 -82 59
-91 0 -9 -10 -92 -22 -184 -21 -161 -22 -167 -40 -151 -22 20 -22 52 1 207
l17 120 -56 70 c-145 184 -550 721 -550 731 0 3 312 5 693 5 382 0 697 3 700
6 4 4 -20 34 -52 68 -89 92 -203 227 -197 233 3 3 32 -4 64 -16 42 -16 63 -30
73 -49 18 -35 117 -181 142 -209 18 -20 31 -23 90 -23 38 0 67 4 65 9 -1 6
-40 51 -86 100 -46 50 -102 115 -125 143 -89 114 -387 448 -601 676 -22 23
-37 42 -34 42 4 0 130 -105 281 -232z m4046 -2 c15 -8 32 -26 39 -41 l12 -26
108 6 c180 10 816 25 1012 24 l185 -1 -75 -25 c-71 -24 -92 -26 -390 -34 -173
-5 -431 -12 -573 -17 l-258 -8 -29 -36 c-52 -63 -139 -59 -180 6 -25 42 -25
72 0 114 31 51 93 66 149 38z m2281 -190 c36 -24 124 -87 195 -140 l130 -96
188 0 189 0 109 -76 c60 -41 109 -76 109 -77 0 -1 -296 -2 -658 -1 l-657 0
-90 33 c-201 73 -714 249 -778 266 l-68 18 193 49 c106 26 220 52 253 57 33 5
231 9 440 10 l380 1 65 -44z m2066 -204 c71 -27 213 -77 317 -112 103 -35 186
-65 184 -66 -2 -2 -340 -4 -751 -4 l-747 0 -110 71 c-60 39 -108 73 -106 75 2
2 216 -1 476 -7 l472 -11 57 50 c31 28 62 51 68 52 7 0 70 -22 140 -48z
m-7661 -644 c-4 -20 -299 -2087 -337 -2366 -8 -56 -12 -104 -10 -107 3 -3 324
-5 714 -5 l709 0 -6 -32 c-6 -38 -85 -629 -85 -640 0 -5 -495 -8 -1101 -8
l-1101 0 6 28 c7 33 92 631 181 1267 80 568 134 949 175 1228 l31 209 -25 31
c-61 77 -316 408 -316 410 0 2 263 4 585 6 l586 3 -6 -24z m3729 -183 c81
-112 178 -245 215 -295 41 -53 67 -98 65 -108 -5 -20 -91 -651 -129 -947 -14
-110 -50 -373 -80 -585 -30 -212 -57 -420 -61 -463 l-7 -78 -276 -249 -276
-249 -517 0 -518 -1 0 22 c0 23 50 419 73 578 l12 84 332 -3 331 -3 38 34 c92
80 89 75 103 188 7 58 32 249 56 425 24 176 64 478 90 671 l48 352 -24 33
c-12 19 -38 53 -56 75 l-33 41 -783 -4 -782 -4 -115 163 c-62 90 -147 210
-187 268 -40 58 -98 140 -128 183 l-56 77 1260 0 1259 0 146 -205z m2646 -4
c91 -115 166 -217 168 -228 2 -11 -11 -128 -28 -259 -17 -131 -38 -293 -46
-359 -7 -66 -16 -134 -19 -151 -4 -24 -30 -53 -111 -125 -58 -52 -128 -115
-156 -140 l-51 -46 83 -109 c46 -60 110 -141 142 -181 l58 -72 -24 -188 c-14
-103 -40 -294 -58 -423 l-32 -235 -146 -140 c-80 -78 -186 -180 -237 -228
l-91 -87 -961 0 -961 0 0 28 c1 29 30 249 79 592 17 118 39 276 48 350 l18
135 373 3 373 3 -6 -33 c-5 -29 -55 -389 -55 -395 0 -2 177 -3 393 -3 l393 0
47 48 48 48 24 175 c13 96 27 186 29 201 4 22 -4 37 -45 83 l-51 55 -749 0
c-412 0 -749 3 -749 8 0 4 27 199 61 432 33 234 66 460 72 503 l11 77 363 0
363 0 0 -25 c0 -23 -33 -282 -45 -347 l-4 -28 372 0 372 0 48 46 48 46 19 146
c11 81 24 169 29 196 9 50 9 50 -36 103 l-46 53 -713 0 -714 -1 -168 253 c-93
139 -194 289 -225 332 -31 43 -57 83 -57 87 0 5 537 9 1193 8 l1192 -1 165
-207z m-9373 -199 c135 -115 74 -102 492 -102 301 0 371 -3 387 -14 10 -8 17
-17 14 -19 -3 -3 -22 -19 -42 -35 -62 -49 -394 -356 -631 -582 -82 -78 -226
-252 -557 -674 -69 -87 -167 -207 -218 -265 -52 -58 -100 -115 -108 -127 -8
-11 -39 -99 -69 -194 -29 -95 -56 -174 -59 -177 -4 -4 -132 30 -249 67 -16 5
-126 85 -245 178 -187 145 -291 222 -351 257 -38 22 43 -67 190 -209 154 -149
159 -155 118 -142 -24 7 -110 34 -191 59 -81 26 -177 54 -215 63 -37 9 -74 22
-81 27 -8 6 -27 38 -44 71 -17 34 -46 88 -66 120 l-35 59 32 241 c17 133 31
253 31 267 0 30 -3 29 179 50 139 15 309 7 511 -26 311 -50 764 -104 778 -92
7 5 61 83 119 171 58 89 114 173 124 189 43 61 -4 18 -140 -128 -79 -85 -149
-155 -155 -154 -85 5 -230 26 -233 34 -2 6 11 19 28 29 55 33 230 209 304 306
39 52 103 142 141 200 37 58 70 107 71 109 2 3 121 -28 247 -66 106 -31 -444
287 -634 367 -41 18 -90 39 -108 47 -18 9 -44 13 -60 10 -15 -4 -108 -25 -207
-47 -204 -46 -518 -111 -521 -107 -1 1 45 65 102 142 l105 140 577 5 c317 3
583 6 589 8 7 1 43 -24 80 -56z m1168 -17 c66 -15 121 -29 123 -30 3 -2 -56
-85 -73 -103 -5 -5 -307 147 -322 162 -21 19 136 2 272 -29z m-3794 -128 l86
-31 6 -146 c2 -80 3 -147 2 -148 -5 -5 -189 276 -215 327 l-22 44 29 -7 c15
-4 67 -21 114 -39z m4203 -381 c99 -96 195 -185 212 -200 l31 -25 -23 -153
c-45 -296 -155 -1056 -185 -1273 -16 -121 -36 -262 -44 -313 -25 -153 -65
-504 -59 -513 3 -5 419 -9 927 -10 804 0 918 -2 892 -14 -43 -21 -576 -257
-925 -411 -107 -47 -151 -72 -169 -95 -34 -43 -259 -304 -471 -545 -211 -239
-525 -598 -792 -904 -107 -124 -250 -288 -318 -365 -67 -77 -201 -238 -297
-357 -96 -120 -177 -218 -179 -218 -3 0 -3 3 -1 8 63 106 204 363 307 557 73
138 194 360 270 495 308 550 380 681 443 800 l66 125 353 340 c194 187 398
384 453 437 l100 98 -263 0 -264 0 -226 -219 c-317 -306 -585 -541 -599 -527
-4 4 34 87 84 185 92 180 475 879 563 1026 26 44 50 98 54 120 3 22 31 212 61
423 l55 384 -67 76 c-229 264 -538 592 -562 597 -65 13 -488 75 -517 75 -42 0
-49 12 -21 38 l22 21 130 -19 c72 -10 201 -30 288 -45 158 -26 158 -26 190
-63 18 -20 79 -89 137 -152 83 -91 228 -251 391 -434 15 -17 20 -1 40 120 l19
117 -24 31 c-43 56 -288 340 -353 409 l-63 68 -143 34 c-127 31 -334 69 -411
77 -27 3 -25 6 60 80 84 73 90 77 128 73 217 -24 366 -48 468 -76 35 -9 85
-58 359 -353 10 -11 21 -18 24 -15 2 3 12 56 21 118 l17 112 -149 142 c-82 79
-172 164 -200 190 l-51 47 -177 2 -178 3 20 25 19 25 173 -3 173 -3 181 -173z
m3682 32 c-4 -18 -27 -181 -51 -363 -24 -181 -49 -364 -55 -405 -5 -41 -35
-255 -65 -475 -61 -431 -120 -872 -131 -972 l-7 -63 -384 0 -385 0 6 28 c3 15
7 45 10 67 8 61 81 592 131 950 24 176 71 518 105 760 33 242 63 455 66 473
l5 32 381 0 381 0 -7 -32z m-4422 -951 c166 -213 283 -411 336 -567 13 -37 25
-101 27 -150 5 -76 2 -95 -25 -175 -36 -109 -261 -570 -272 -558 -8 8 -80 186
-80 197 0 3 45 89 100 191 l100 184 0 89 c0 170 -41 327 -127 482 -53 95 -169
255 -241 332 l-63 67 58 4 c32 2 69 4 83 5 21 1 39 -16 104 -101z m3351 -1575
c-43 -41 -1157 -1173 -1231 -1250 l-99 -103 -340 -119 c-521 -181 -1066 -383
-1209 -449 -38 -17 -71 -31 -75 -31 -3 0 42 48 100 108 105 105 496 527 798
858 85 93 194 211 243 262 l90 93 301 146 c334 161 428 205 433 201 1 -2 -4
-17 -12 -34 -11 -22 -34 -39 -87 -64 -39 -18 -193 -93 -342 -165 l-270 -131
-105 -115 c-388 -424 -699 -759 -837 -899 -61 -63 -110 -116 -108 -118 10 -10
632 369 1120 682 166 106 300 189 352 218 29 16 67 48 85 71 35 45 174 210
351 416 59 69 164 196 233 281 l126 155 245 -3 c135 -1 242 -6 238 -10z m3385
-41 c55 -40 50 -128 -9 -168 -49 -33 -86 -30 -128 12 l-35 35 -352 0 c-194 0
-772 -3 -1284 -7 l-932 -6 -342 -214 c-488 -305 -715 -440 -724 -430 -16 15
305 236 731 502 121 75 240 152 265 170 l46 32 1294 7 c732 4 1296 11 1298 16
8 21 46 62 66 71 28 11 75 3 106 -20z m-2040 -388 c-99 -38 -465 -200 -590
-263 -340 -170 -545 -310 -965 -659 -34 -28 -96 -65 -140 -84 -781 -335 -1016
-437 -1149 -496 -87 -39 -161 -71 -163 -71 -3 0 98 82 224 183 125 100 271
218 323 261 52 43 163 133 245 201 83 68 213 176 290 240 150 124 235 173 470
268 61 24 244 99 407 166 316 129 352 140 658 196 107 20 227 43 265 50 71 13
153 18 125 8z"/>
<path d="M9318 14984 c-35 -18 -58 -62 -58 -110 0 -28 8 -44 34 -70 29 -29 41
-34 81 -34 40 0 52 5 82 35 l35 35 864 0 863 0 150 -105 149 -105 674 0 674 0
22 -29 c87 -118 273 11 193 133 -26 39 -57 55 -105 56 -33 0 -45 -6 -76 -39
l-37 -39 -654 -3 c-630 -4 -656 -3 -684 15 -17 10 -87 59 -157 108 l-126 88
-875 0 -875 0 -40 40 c-44 44 -84 52 -134 24z"/>
<path d="M7306 7757 c-33 -61 -124 -227 -204 -367 -157 -278 -252 -453 -252
-464 0 -15 182 149 385 348 l210 205 -63 1 -64 0 6 28 c6 32 43 283 49 330 2
17 1 32 -2 32 -3 0 -33 -51 -65 -113z"/>
</g>
</svg>
