<?xml version="1.0" standalone="no"?>
<!DOCTYPE svg PUBLIC "-//W3C//DTD SVG 20010904//EN"
 "http://www.w3.org/TR/2001/REC-SVG-20010904/DTD/svg10.dtd">
<svg version="1.0" xmlns="http://www.w3.org/2000/svg"
 width="2048.000000pt" height="2048.000000pt" viewBox="0 0 2048.000000 2048.000000"
 preserveAspectRatio="xMidYMid meet">

<g transform="translate(0.000000,2048.000000) scale(0.100000,-0.100000)"
fill="#000000" stroke="none">
<path d="M0 10240 l0 -10240 10240 0 10240 0 0 10240 0 10240 -10240 0 -10240
0 0 -10240z m12408 6185 c53 -13 156 -38 227 -54 72 -15 346 -81 610 -145 264
-65 604 -146 755 -182 151 -35 304 -71 341 -80 l65 -15 171 -322 c161 -302
286 -550 378 -747 22 -47 50 -107 63 -134 32 -68 3 -43 -55 47 -23 37 -45 67
-48 67 -6 0 59 -103 95 -150 33 -43 74 -110 66 -110 -7 0 -107 124 -245 305
-67 88 -175 230 -241 315 -66 85 -161 216 -212 290 -114 168 -152 217 -187
234 -15 8 -133 53 -262 99 -129 47 -333 123 -454 170 -419 161 -753 286 -1000
372 -82 28 -157 54 -165 58 -34 13 7 6 98 -18z m521 -470 l349 -174 148 -132
c82 -73 178 -159 214 -192 108 -101 551 -539 548 -542 -8 -9 -113 37 -164 72
-33 22 -113 73 -179 113 -552 337 -758 444 -1140 595 l-160 63 -230 11 c-373
18 -908 40 -1075 44 -120 4 -143 3 -100 -5 30 -5 217 -36 415 -69 198 -33 425
-73 505 -90 80 -16 244 -50 365 -75 306 -63 461 -101 520 -128 27 -12 136 -76
240 -141 261 -163 495 -304 588 -355 l79 -43 -112 -34 c-62 -19 -125 -40 -140
-48 -27 -14 -30 -11 -336 227 -170 132 -339 265 -376 295 l-67 54 -208 29
c-114 16 -273 36 -353 45 -554 62 -1167 167 -1899 325 -106 23 -239 50 -295
60 -101 18 -99 18 679 15 l780 -3 -590 8 c-889 12 -1548 30 -1560 42 -3 3 75
10 172 17 98 6 304 21 458 32 443 31 1286 87 1570 104 143 9 386 25 540 34
154 10 322 19 372 20 l93 1 349 -175z m2222 -644 l6 -86 121 -120 121 -120 -6
-302 c-3 -167 -9 -303 -13 -303 -16 0 -62 133 -114 330 -61 230 -75 297 -75
355 0 22 -6 60 -14 85 l-15 45 -1 -100 c0 -55 4 -170 8 -255 5 -85 5 -186 1
-225 -4 -38 -8 -56 -9 -40 0 17 -23 143 -50 280 -27 138 -55 287 -61 332 -14
97 -19 104 -195 343 -68 92 -163 223 -211 291 -49 68 -105 147 -126 174 -21
28 -38 54 -38 59 0 5 150 -141 332 -324 l333 -333 6 -86z m-5218 572 c-7 -2
-21 -2 -30 0 -10 3 -4 5 12 5 17 0 24 -2 18 -5z m3765 -217 c372 -144 432
-166 441 -166 6 0 46 -44 90 -97 43 -54 127 -156 187 -228 102 -124 322 -413
338 -445 9 -19 -98 95 -166 175 -85 100 -409 457 -461 507 -37 35 -90 65 -215
125 -233 110 -398 192 -389 192 5 1 84 -28 175 -63z m-3367 -136 c214 -44 392
-80 395 -80 4 0 4 -7 0 -15 -4 -11 1 -15 17 -15 12 0 85 -7 162 -15 77 -8 144
-15 148 -15 5 0 6 -4 3 -9 -3 -4 -40 -14 -83 -20 -43 -7 -307 -53 -588 -102
-280 -50 -627 -110 -770 -135 -143 -25 -323 -56 -400 -69 -462 -82 -1009 -168
-1032 -163 -10 3 9 8 42 12 60 8 210 40 635 136 124 28 353 78 510 111 157 32
290 62 295 64 21 10 -80 -9 -330 -61 -784 -166 -1577 -323 -1639 -324 -12 0
-16 3 -10 9 16 15 384 143 1334 462 503 169 916 307 918 308 1 1 178 -35 393
-79z m3590 -108 c63 -48 405 -392 456 -459 24 -31 25 -36 11 -50 -10 -9 -24
-13 -36 -9 -18 6 -515 519 -536 554 -18 31 46 8 105 -36z m-2136 -143 c127
-10 345 -31 485 -45 225 -22 259 -28 290 -48 97 -64 654 -572 647 -591 -4 -8
3 -10 19 -7 19 3 24 10 23 36 0 17 -3 39 -7 48 -7 17 -113 111 -237 210 -38
31 -95 79 -125 107 l-55 52 80 -52 c44 -29 135 -92 203 -140 67 -48 179 -123
248 -165 109 -68 122 -79 103 -86 -12 -5 -49 -25 -82 -45 -57 -34 -65 -36
-191 -45 -72 -5 -172 -10 -222 -11 l-91 -2 -69 47 c-38 27 -139 102 -224 169
-171 132 -327 240 -381 263 -94 39 -726 179 -871 193 l-65 6 -18 -39 c-10 -21
-20 -58 -21 -83 -2 -24 -17 -94 -34 -156 -35 -132 -60 -279 -60 -353 0 -29 -5
-62 -10 -73 -7 -13 -7 -19 0 -19 5 0 10 -9 10 -21 0 -13 69 -93 193 -222 338
-355 411 -437 390 -437 -21 0 -244 222 -442 440 -158 174 -156 170 -177 285
-16 87 -19 94 -22 57 -2 -24 1 -64 6 -88 11 -52 0 -58 -19 -11 -10 23 -14 79
-13 202 0 176 13 261 75 480 37 132 48 153 77 158 72 11 381 4 587 -14z
m-1851 -205 c14 -15 26 -36 26 -48 0 -17 29 -36 153 -99 l152 -77 328 0 327 0
0 -25 c0 -18 -7 -26 -26 -31 -15 -4 -164 -5 -333 -2 l-306 5 -150 75 -150 75
-30 -18 c-46 -29 -82 -24 -121 15 -37 37 -42 62 -19 106 19 37 41 49 86 50 26
0 44 -7 63 -26z m4551 -356 c436 -175 547 -231 650 -328 39 -36 162 -135 275
-220 226 -169 371 -285 501 -401 66 -59 94 -93 122 -147 32 -60 35 -71 21 -76
-37 -14 -239 -56 -271 -56 -45 0 -118 68 -224 209 -64 84 -84 120 -106 187
-25 76 -29 84 -57 90 -55 12 -470 150 -506 169 -40 21 -200 138 -379 279 -68
53 -140 105 -160 115 -22 11 -81 23 -151 30 -119 12 -236 37 -329 69 l-54 18
109 33 c219 65 360 100 384 95 14 -3 93 -32 175 -66z m-580 -124 c11 -4 36
-18 55 -30 25 -15 75 -28 175 -43 77 -12 152 -21 167 -21 18 0 46 -16 80 -44
29 -25 143 -115 252 -202 l200 -156 225 -69 c312 -95 301 -91 312 -111 17 -31
69 -209 69 -235 0 -14 -16 -41 -40 -66 -30 -32 -40 -38 -40 -24 0 32 -99 103
-280 199 -182 97 -201 105 -270 110 -90 7 -194 61 -400 209 -145 103 -362 229
-397 229 -6 0 -22 15 -35 33 -27 38 -141 185 -163 210 -19 22 -19 28 2 20 10
-4 14 -2 10 4 -7 11 36 4 78 -13z m-5375 -48 c157 -33 304 -67 307 -70 2 -2
-21 -15 -49 -31 -29 -15 -100 -56 -158 -90 -211 -124 -791 -437 -935 -505
-158 -74 -240 -109 -244 -104 -4 4 7 16 23 28 85 62 523 400 536 413 13 14 10
15 -30 10 -77 -10 -534 -36 -990 -57 -1113 -51 -1603 -71 -1609 -65 -9 10 8
13 179 40 96 14 382 60 635 100 253 41 550 88 660 105 836 129 1201 187 1380
219 88 16 165 29 170 30 6 0 62 -10 125 -23z m480 -89 l95 -12 -84 -19 c-105
-23 -116 -27 -341 -141 -181 -91 -489 -238 -537 -256 -41 -15 -16 8 45 42 31
18 120 69 197 114 77 45 196 115 265 155 69 40 143 86 164 102 44 31 55 32
196 15z m1857 -14 c3 -6 -43 -36 -104 -67 -59 -31 -138 -75 -175 -99 l-68 -43
223 -2 c196 -2 223 -4 235 -19 8 -11 9 -20 2 -27 -5 -5 -127 -10 -299 -10
l-290 -1 -53 -51 c-54 -51 -117 -106 -267 -229 l-84 -69 -438 3 -438 3 -40
-42 c-38 -40 -43 -42 -82 -37 -77 10 -118 81 -85 146 18 34 62 61 99 61 29 0
73 -33 82 -60 6 -20 17 -20 443 -20 l437 1 141 117 c77 64 158 132 180 150
l39 33 -244 -6 -244 -7 -32 -34 c-28 -29 -39 -34 -80 -34 -40 0 -52 5 -81 34
-24 24 -34 43 -34 65 0 68 53 121 119 121 33 0 86 -39 96 -70 6 -19 17 -20
282 -20 l276 0 89 65 c49 36 104 74 123 84 l34 18 -196 6 c-108 4 -392 7 -631
7 -365 0 -439 -2 -465 -15 -47 -22 -370 -329 -1197 -1135 -871 -848 -1102
-1071 -1154 -1113 l-38 -31 15 30 c8 16 275 285 594 599 1123 1106 1302 1281
1585 1547 l168 158 742 3 c409 1 758 2 777 2 19 0 36 -5 38 -12z m2853 -15
c12 -23 13 -31 2 -48 -14 -22 -16 -33 -4 -27 4 3 8 -18 9 -45 3 -57 20 -119
37 -130 6 -4 91 -8 189 -8 l178 0 19 -42 c10 -24 27 -72 36 -106 13 -48 23
-66 41 -73 64 -24 83 -90 38 -134 -29 -30 -64 -32 -98 -5 -34 27 -41 63 -20
107 17 36 17 38 -13 120 l-29 83 -164 5 c-213 6 -218 9 -247 124 -17 69 -26
87 -52 108 -18 13 -32 34 -32 45 0 59 81 78 110 26z m-265 -126 c9 -68 14
-126 12 -129 -3 -3 -9 12 -12 33 -10 58 -15 65 -12 16 3 -51 15 -53 -153 23
-171 78 -220 89 -350 82 -126 -8 -362 -54 -508 -102 -122 -39 -114 -27 30 46
177 89 208 96 568 129 63 5 175 15 249 20 74 5 136 12 139 15 13 12 20 -17 37
-133z m-1979 -65 c88 -90 189 -197 225 -238 69 -78 117 -149 101 -149 -5 0
-101 96 -213 213 -254 264 -299 313 -299 327 0 30 42 -5 186 -153z m3813 112
c73 -41 297 -192 431 -289 58 -42 159 -112 225 -157 207 -139 319 -223 332
-248 14 -26 38 -174 29 -182 -2 -3 -47 9 -99 26 l-94 32 -23 77 c-22 70 -31
83 -100 153 -77 77 -220 194 -440 359 -291 217 -342 259 -326 260 5 0 34 -14
65 -31z m-2253 -160 c76 -14 306 -79 318 -90 6 -5 0 -9 -15 -9 -13 0 -46 -7
-72 -15 -31 -9 -55 -11 -65 -6 -34 18 -214 51 -276 51 -48 0 -107 -12 -223
-46 -87 -26 -219 -62 -293 -80 -176 -45 -198 -52 -240 -80 -37 -26 -67 -33
-36 -9 18 14 18 15 2 15 -23 0 -147 -119 -139 -134 3 -6 3 -8 -2 -4 -4 4 -14
1 -22 -7 -8 -8 -18 -15 -23 -15 -5 0 32 41 83 91 l91 90 196 75 c107 42 274
100 370 129 186 57 237 64 346 44z m-2220 -178 c-4 -5 -1 -11 6 -13 20 -7 -37
-40 -74 -43 -18 -2 -87 -6 -153 -10 -106 -6 -124 -10 -153 -32 -57 -43 -452
-381 -554 -475 l-96 -88 -456 0 -455 0 -293 -201 c-161 -110 -328 -224 -370
-252 -66 -44 -78 -56 -78 -80 0 -66 -57 -116 -113 -101 -37 9 -77 59 -77 96 0
62 83 109 140 78 16 -8 36 2 112 57 51 37 226 157 388 265 l295 199 443 -1
c352 -1 447 1 460 12 9 7 53 45 97 84 303 271 555 476 593 485 15 4 88 7 162
8 74 1 142 6 150 11 19 12 33 13 26 1z m515 -197 c69 -62 132 -121 140 -130
25 -31 -125 68 -224 147 l-99 78 -36 -15 c-21 -9 -91 -34 -157 -57 l-120 -40
-159 -136 c-88 -75 -200 -171 -250 -215 -92 -79 -204 -161 -211 -154 -3 2 73
71 168 153 95 83 234 206 310 274 l139 124 142 52 c78 29 151 57 161 63 23 12
24 11 196 -144z m2206 101 c11 -8 23 -25 27 -38 4 -16 53 -54 168 -130 90 -58
196 -133 237 -165 l74 -59 96 -6 c53 -3 111 -3 129 1 32 7 33 8 15 23 -10 9
-47 33 -83 54 -67 39 -187 120 -205 138 -15 15 328 -163 344 -179 20 -19 -17
-72 -144 -204 -87 -90 -106 -115 -119 -160 -9 -30 -16 -67 -17 -84 -1 -29 -2
-29 -11 9 -5 22 -7 66 -5 97 4 48 11 67 43 108 21 28 65 73 97 100 l59 50
-112 0 -112 0 -61 56 c-90 84 -397 286 -414 273 -24 -21 -84 -15 -104 10 -54
66 28 155 98 106z m-1447 -95 c-8 -5 -19 -10 -25 -10 -5 0 -3 5 5 10 8 5 20
10 25 10 6 0 3 -5 -5 -10z m1015 -46 c-27 -25 -90 -71 -140 -102 -49 -31 -189
-123 -310 -203 l-220 -146 -82 -149 c-44 -82 -122 -228 -172 -324 -115 -220
-141 -257 -99 -140 50 141 116 357 144 475 15 60 30 119 34 130 4 12 64 54
141 99 74 43 220 129 324 191 259 154 302 177 354 197 73 27 79 20 26 -28z
m-150 -3 c-6 -5 -75 -47 -155 -93 -80 -47 -252 -147 -384 -223 l-238 -139
-108 -116 c-103 -110 -453 -502 -590 -660 -57 -66 -347 -385 -512 -563 -31
-34 -57 -57 -58 -51 0 6 84 139 188 297 103 158 212 326 243 374 31 48 197
299 367 557 l311 469 223 39 c123 21 322 56 443 77 231 41 286 47 270 32z
m-7195 -21 c16 -11 32 -29 35 -40 6 -20 18 -20 720 -20 402 0 716 -4 719 -9 3
-5 -4 -20 -15 -35 l-20 -26 -699 0 c-698 0 -699 0 -705 -21 -10 -29 -64 -59
-108 -59 -31 0 -46 7 -72 33 -57 57 -58 115 -5 168 23 24 37 29 75 29 31 0 57
-7 75 -20z m2506 -98 c-11 -18 -91 -30 -585 -86 l-103 -11 -102 -126 c-240
-299 -586 -702 -595 -693 -3 4 0 9 8 12 11 4 11 6 0 13 -11 6 -10 11 2 26 9
10 48 57 88 105 40 49 78 85 84 81 6 -3 7 -1 3 5 -6 10 87 142 142 202 13 14
55 68 95 120 39 52 103 129 142 171 40 41 78 89 86 107 11 26 20 31 59 36 40
5 418 31 560 39 30 2 70 4 88 5 18 1 31 -2 28 -6z m6779 -67 c70 -36 134 -70
142 -77 13 -11 103 -180 103 -193 0 -4 -87 -5 -193 -3 l-194 3 -48 30 c-26 17
-90 76 -142 132 l-95 102 59 16 c32 9 85 25 118 35 96 29 111 26 250 -45z
m-7802 -327 c-125 -156 -302 -373 -393 -483 -91 -110 -271 -330 -399 -489
-195 -241 -388 -475 -409 -496 -28 -28 166 236 519 705 300 399 457 625 434
625 -11 0 -316 -119 -475 -185 -85 -36 -297 -121 -470 -189 -173 -68 -448
-177 -610 -241 -162 -64 -403 -159 -535 -210 -132 -51 -346 -135 -475 -185
-420 -164 -790 -297 -790 -284 0 5 822 412 1405 696 653 318 1640 811 1820
909 l170 93 90 6 c50 4 147 7 217 8 l128 2 -227 -282z m7322 218 c22 -17 79
-68 127 -113 123 -116 123 -116 318 -124 163 -7 213 -15 190 -29 -8 -5 -2 -22
19 -55 17 -27 29 -50 28 -52 -2 -2 -18 4 -36 13 -31 15 -210 32 -364 33 -47 1
-50 3 -149 99 -55 53 -132 132 -170 175 -56 63 -67 81 -58 93 14 16 33 8 95
-40z m-2835 33 c-40 -27 -98 -52 -130 -56 -19 -2 -156 -27 -305 -54 -148 -28
-319 -59 -379 -70 -124 -22 -192 -48 -501 -184 -453 -200 -757 -326 -778 -323
-30 5 122 81 480 242 523 234 652 287 738 301 44 7 231 40 415 74 291 52 427
75 465 80 6 0 3 -4 -5 -10z m4477 -60 c129 -41 208 -76 346 -153 166 -93 333
-206 305 -206 -8 0 -140 47 -252 90 l-109 42 -63 -16 c-77 -19 -144 -20 -247
-1 -65 11 -101 26 -226 97 -82 45 -147 85 -145 88 6 5 265 88 281 89 7 1 57
-13 110 -30z m-1417 -333 c14 -2 102 -7 195 -10 94 -3 195 -10 226 -17 l56
-11 65 -112 c95 -161 93 -154 72 -177 -10 -11 -49 -36 -87 -56 -38 -20 -90
-56 -117 -80 l-49 -44 -158 80 c-148 74 -488 216 -578 240 -22 6 -45 14 -51
18 -22 15 -177 272 -156 259 10 -6 34 19 132 139 30 36 63 71 72 76 11 6 15
16 11 27 -3 9 72 -60 168 -155 104 -102 184 -174 199 -177z m768 203 c26 0 26
-1 5 -11 -16 -8 -27 -6 -45 7 -16 12 -18 16 -5 11 10 -3 31 -6 45 -7z m-2145
-60 c12 -6 30 -21 39 -33 16 -20 28 -21 191 -26 l174 -5 98 -119 98 -120 -7
-141 -6 -141 111 -117 111 -117 414 0 c228 0 414 -2 414 -5 0 -3 -7 -17 -16
-30 l-16 -25 -403 0 -403 0 -127 135 -128 135 8 138 7 138 -93 112 -93 112
-159 0 -158 0 -26 -30 c-43 -51 -126 -35 -153 30 -10 23 -9 35 5 63 24 51 72
69 118 46z m1922 -52 c17 -6 46 -21 65 -33 19 -13 114 -50 210 -84 170 -60
330 -131 458 -202 l63 -35 -68 1 c-37 0 -147 -3 -245 -8 l-176 -9 -46 27 c-28
16 -68 56 -105 104 -76 99 -126 147 -176 166 -34 14 -85 67 -85 88 0 9 68 -1
105 -15z m-5672 -44 c4 -2 5 -9 2 -14 -3 -5 2 -6 11 -2 12 4 15 3 10 -6 -6 -9
0 -10 21 -6 23 5 25 4 11 -5 -12 -7 -97 -11 -254 -10 l-236 0 -97 -83 c-162
-140 -407 -346 -596 -502 -169 -139 -179 -150 -177 -179 4 -37 -27 -83 -66
-97 -32 -12 -87 5 -107 34 -18 26 -19 86 -2 108 27 35 93 51 126 30 9 -6 106
69 340 264 179 151 380 321 446 379 l120 106 220 -6 c121 -4 223 -9 228 -11z
m6933 -27 c38 -13 132 -48 209 -78 77 -31 163 -63 190 -73 124 -45 468 -309
652 -498 125 -129 143 -154 118 -163 -43 -17 -135 5 -261 61 -290 129 -290
129 -409 95 -38 -11 -78 -20 -89 -20 -10 0 -64 44 -120 98 -55 54 -136 122
-178 151 -89 59 -94 74 -55 151 20 41 26 45 63 48 83 6 288 -86 573 -257 84
-51 155 -90 157 -88 10 9 -116 114 -216 180 -114 76 -354 196 -444 222 -61 18
-119 14 -169 -11 -26 -14 -33 -11 -162 61 -125 69 -216 105 -272 105 -12 0
-25 5 -29 12 -5 8 22 10 107 6 76 -3 129 -1 159 7 67 19 99 17 176 -9z m-9926
-220 c-84 -81 -61 -71 -415 -196 -121 -43 -341 -122 -490 -175 -270 -96 -526
-185 -534 -185 -2 0 5 8 17 18 11 10 164 75 339 145 341 135 618 246 883 352
91 36 188 77 215 90 28 13 52 24 55 24 3 0 -29 -32 -70 -73z m4272 -16 c76 -6
156 -7 179 -4 30 5 40 4 35 -4 -6 -11 13 -16 89 -25 17 -2 -4 -5 -46 -6 -71
-1 -84 -5 -190 -58 -63 -31 -250 -113 -417 -184 -167 -70 -313 -135 -324 -146
-11 -10 -47 -52 -78 -94 -42 -54 -56 -80 -49 -90 5 -8 9 -27 9 -42 0 -78 -76
-127 -145 -94 -49 23 -71 69 -56 119 15 47 51 72 106 73 40 0 44 3 111 85 82
101 77 98 484 265 157 65 300 125 319 134 l34 18 -84 6 c-221 18 -244 14 -536
-73 -148 -45 -324 -99 -393 -121 l-125 -41 -54 -92 c-279 -476 -428 -738 -574
-1011 -47 -88 -93 -169 -101 -180 -28 -35 343 683 513 995 56 102 118 217 138
256 l37 71 405 121 c469 141 472 141 531 136 25 -2 107 -9 182 -14z m5260
-145 c-2 -25 -7 -43 -12 -40 -4 2 -63 -5 -131 -16 -138 -23 -305 -22 -320 3
-5 7 -3 16 4 20 19 12 34 9 17 -3 -12 -9 -12 -10 3 -5 10 3 24 6 30 6 7 0 6 5
-3 11 -11 8 -6 9 20 4 23 -4 30 -3 22 3 -13 9 25 18 213 51 28 5 75 9 105 10
l55 1 -3 -45z m141 1 c34 -15 265 -197 386 -305 41 -36 112 -111 159 -166 47
-55 126 -140 175 -189 80 -79 95 -100 143 -200 29 -61 60 -135 70 -164 15 -49
15 -55 0 -97 -22 -57 -115 -144 -198 -184 -85 -41 -290 -99 -396 -111 -235
-27 -780 7 -870 54 l-27 14 26 7 c14 3 88 1 165 -5 211 -16 724 -25 724 -13 0
16 -73 30 -305 58 -275 33 -406 53 -481 72 -59 14 -62 17 -67 49 -4 24 -25 56
-67 102 -34 36 -57 68 -52 70 6 2 45 -6 88 -17 44 -11 129 -29 189 -40 61 -11
266 -49 457 -85 192 -36 360 -66 375 -66 26 1 27 2 10 14 -39 30 -338 128
-612 201 -121 32 -468 137 -475 143 -3 3 1 7 7 9 10 4 9 10 -2 26 -8 12 -15
28 -15 35 0 8 -31 57 -70 109 -65 88 -79 113 -64 113 3 0 52 -25 108 -55 80
-42 193 -85 526 -196 234 -78 454 -152 489 -165 35 -13 75 -24 89 -24 24 0 24
1 8 19 -46 50 -598 300 -918 416 -45 15 -48 19 -48 51 0 25 -15 56 -60 121
-33 47 -60 90 -60 95 0 16 26 8 115 -37 50 -24 216 -98 370 -164 154 -66 357
-154 450 -196 94 -42 181 -79 195 -82 l25 -6 -24 27 c-52 56 -360 235 -682
397 -169 84 -179 91 -232 155 -30 36 -53 72 -51 79 3 7 52 17 134 25 l130 12
34 -30 c32 -27 126 -96 299 -216 38 -26 71 -46 73 -43 9 9 -182 194 -248 241
-38 26 -68 55 -68 63 0 27 23 93 32 93 5 0 23 -6 41 -14z m-6793 -29 c0 -5
-179 -397 -245 -537 -30 -63 -130 -279 -223 -480 l-169 -365 -149 -51 c-84
-28 -217 -84 -303 -127 -85 -43 -156 -75 -159 -72 -3 3 10 22 30 43 51 53 172
209 267 341 75 105 87 117 164 162 45 27 99 68 121 91 56 62 369 542 491 753
58 101 155 245 165 245 5 0 10 -2 10 -3z m3433 -40 c18 -8 38 -26 46 -40 l14
-27 338 0 338 0 183 -182 183 -183 355 4 c368 4 690 -5 690 -19 0 -5 -7 -16
-16 -24 -14 -14 -76 -16 -532 -16 l-516 0 -181 180 -181 180 -327 0 -327 0
-15 -24 c-20 -30 -67 -50 -98 -42 -98 24 -115 145 -27 188 42 21 34 21 73 5z
m-249 -96 c3 -4 -52 -47 -122 -95 -338 -231 -757 -512 -942 -632 -113 -73
-344 -223 -513 -334 -170 -111 -310 -201 -312 -199 -1 2 65 69 149 148 83 80
298 288 477 463 l327 318 118 44 c66 24 180 68 254 96 97 38 524 190 557 199
1 1 4 -3 7 -8z m2975 -144 c124 -156 133 -171 137 -205 l2 -27 -29 35 c-67 79
-271 386 -226 340 8 -8 60 -73 116 -143z m-6606 -113 c-32 -36 -114 -116 -183
-177 -69 -62 -155 -141 -192 -176 l-68 -64 -247 17 c-617 42 -690 45 -761 30
-116 -24 -890 -221 -1042 -265 -80 -23 -158 -43 -175 -45 -48 -5 -62 -9 -81
-23 -11 -8 -7 -3 7 11 18 17 66 35 160 60 294 80 676 180 909 239 l245 61 350
-16 c193 -9 413 -19 490 -22 l140 -6 160 139 c87 76 200 175 250 220 49 45 91
82 93 83 2 0 -23 -30 -55 -66z m3735 -224 c63 -135 118 -251 124 -257 13 -16
6 -16 -43 -1 -36 10 -44 20 -98 117 -32 58 -80 148 -106 200 l-47 94 -26 -33
c-72 -90 -234 -300 -330 -427 -59 -78 -109 -140 -111 -138 -8 9 101 168 327
475 63 85 128 179 145 208 30 50 32 51 42 30 5 -13 60 -133 123 -268z m541
235 c33 -16 55 -64 49 -100 -5 -22 18 -47 174 -196 l179 -171 236 4 236 3 87
93 87 92 311 0 c302 0 312 -1 312 -19 0 -11 -5 -23 -11 -27 -6 -4 -140 -6
-298 -5 l-286 2 -62 -67 c-35 -37 -63 -69 -63 -71 0 -2 186 -3 413 -3 420 0
437 -1 437 -37 0 -10 -88 -13 -452 -13 l-453 0 -123 -130 -123 -130 -119 0
-118 0 -35 -35 c-48 -48 -86 -48 -134 0 -32 32 -35 39 -30 78 12 89 100 116
164 52 l35 -35 106 0 107 0 92 92 c51 51 93 96 93 100 0 5 -97 8 -216 8 l-215
0 -184 172 -184 172 -45 -3 c-40 -2 -50 2 -76 27 -47 48 -39 116 18 146 35 19
56 20 91 1z m2298 -308 c31 -37 53 -70 50 -73 -16 -17 -178 170 -169 196 5 15
14 6 119 -123z m-8782 32 c-22 -22 -49 -45 -60 -50 -11 -6 5 12 35 40 67 61
78 66 25 10z m5250 -104 c-53 -46 -245 -178 -245 -169 0 5 -5 3 -12 -4 -7 -7
-21 -12 -32 -12 -20 1 -21 1 -2 15 10 8 22 12 27 10 4 -3 9 0 11 6 3 10 274
186 288 188 3 0 -13 -15 -35 -34z m5458 -157 c-8 -86 -32 -180 -58 -225 -15
-25 -21 -44 -15 -48 5 -3 10 -16 10 -28 -1 -33 -37 -107 -53 -107 -10 0 -14
-14 -15 -46 0 -59 -44 -132 -141 -235 -40 -44 -76 -79 -80 -79 -3 0 -5 34 -3
75 2 43 -3 109 -12 153 l-16 77 65 129 c62 124 68 132 192 256 70 70 128 128
129 128 1 1 -1 -22 -3 -50z m-5767 -40 c4 -7 3 -8 -4 -4 -7 4 -12 2 -12 -5 0
-7 -3 -10 -6 -6 -6 5 3 27 11 27 2 0 7 -5 11 -12z m-91 -44 c-11 -8 -19 -20
-17 -25 1 -5 -4 -9 -12 -9 -8 0 -17 -7 -20 -16 -3 -8 -10 -12 -16 -9 -5 3 -10
0 -10 -7 -1 -13 -91 -74 -170 -114 -47 -24 -120 -40 -103 -23 11 11 356 219
363 219 3 -1 -4 -8 -15 -16z m1553 -12 c7 -9 10 -27 8 -38 -6 -22 42 -84 245
-319 151 -175 162 -185 199 -185 26 0 30 -3 21 -13 -8 -10 -3 -21 22 -46 31
-32 33 -33 92 -27 33 3 140 9 238 13 173 6 177 6 177 -14 0 -11 -6 -25 -13
-31 -7 -6 -110 -13 -252 -18 l-240 -7 -50 42 c-27 22 -52 41 -56 41 -6 0 -95
-99 -185 -208 -60 -71 -61 -75 -51 -108 14 -47 -14 -88 -65 -92 l-35 -3 -7
-89 c-21 -275 -151 -507 -354 -634 l-42 -26 53 -53 c165 -161 190 -463 62
-760 -69 -161 -225 -321 -391 -403 l-76 -38 6 -136 c3 -74 9 -200 12 -280 l6
-145 -72 -118 c-68 -114 -71 -120 -56 -143 18 -27 21 -86 6 -115 -13 -24 -61
-49 -95 -49 -58 0 -115 55 -115 110 0 29 27 77 49 90 11 5 35 10 54 10 32 0
37 5 101 108 l67 107 -5 125 c-3 69 -9 191 -12 271 l-6 147 -32 -9 c-63 -19
-213 -39 -287 -39 l-76 0 -5 -557 c-5 -509 -7 -561 -24 -595 -10 -21 -24 -38
-32 -38 -12 0 -14 65 -12 433 1 237 2 505 1 595 l-1 162 -70 0 -70 0 -1 -282
c0 -345 -7 -420 -37 -450 -12 -12 -23 -20 -26 -17 -2 2 -9 162 -16 354 -6 193
-13 360 -16 373 l-4 22 -585 0 c-322 0 -585 4 -585 8 0 12 74 379 115 567 67
312 144 692 170 835 14 80 28 156 31 169 l5 23 359 -7 358 -7 6 43 c3 24 7
113 8 197 l3 152 -135 0 -135 0 -172 133 c-94 72 -172 139 -172 147 -1 8 13
84 31 168 l33 152 365 0 365 0 41 107 c23 59 45 108 51 110 12 4 23 -74 23
-159 l0 -58 389 0 c421 0 474 -5 606 -54 136 -52 235 -139 290 -255 17 -34 31
-57 33 -51 2 5 16 10 32 10 23 0 44 17 112 92 46 50 106 116 134 147 l52 55
-107 116 c-59 64 -147 167 -195 228 -57 72 -95 112 -107 112 -27 0 -59 35 -59
65 0 19 -7 28 -27 35 -72 26 -68 30 27 25 74 -4 98 -10 108 -23z m-9481 -37
c-38 -13 -76 -21 -85 -18 -10 4 -13 2 -8 -5 4 -7 2 -12 -3 -12 -6 0 -11 5 -11
10 0 6 -21 10 -46 10 -27 0 -43 -4 -39 -10 3 -6 -4 -10 -17 -10 -18 0 -20 -2
-8 -10 13 -9 13 -10 0 -10 -11 0 -12 -2 -3 -8 11 -7 -69 -26 -289 -68 -18 -4
-28 -1 -28 6 0 6 5 8 10 5 6 -3 10 -1 10 5 0 6 5 8 10 5 6 -3 10 -1 10 4 0 11
-13 15 -37 12 -7 -1 -13 3 -13 10 0 8 -4 8 -15 -1 -13 -11 -14 -10 -10 2 6 16
195 51 470 88 174 24 181 24 102 -5z m11510 2 c9 -9 13 -20 9 -24 -4 -5 -202
-10 -439 -12 l-432 -3 -100 -109 c-100 -109 -100 -109 -97 -157 2 -49 -8 -71
-45 -90 -37 -20 -73 -14 -104 17 -60 61 -22 151 65 151 40 1 45 5 155 127
l115 125 428 -4 c385 -3 430 -6 445 -21z m-7764 -4 c-7 -2 -21 -2 -30 0 -10 3
-4 5 12 5 17 0 24 -2 18 -5z m535 -67 c404 -50 413 -52 394 -70 -17 -15 -30
-17 -74 -11 -93 12 -710 115 -778 130 l-65 14 55 -5 c30 -3 241 -29 468 -58z
m7683 45 c4 0 15 -13 24 -28 l18 -26 -30 21 c-17 12 -32 19 -35 16 -3 -2 -10
2 -17 9 -9 12 -7 14 11 12 13 -1 26 -3 29 -4z m-12116 -31 c-11 -5 -27 -9 -35
-9 -9 0 -8 4 5 9 11 5 27 9 35 9 9 0 8 -4 -5 -9z m2065 -193 c0 -13 -5 -28
-12 -35 -9 -9 -178 -12 -700 -12 l-688 0 -113 -97 c-179 -155 -408 -357 -749
-660 -175 -156 -326 -283 -336 -283 -23 0 -42 19 -42 41 0 9 17 29 38 45 45
34 166 139 552 479 431 380 579 508 608 527 25 17 78 18 735 18 l707 0 0 -23z
m5300 -142 c-12 -13 -27 -22 -31 -19 -5 3 -9 0 -9 -5 0 -6 -7 -11 -15 -11 -8
0 -15 -4 -15 -8 0 -5 -7 -9 -15 -9 -20 0 -12 7 50 46 61 37 65 38 35 6z
m-1523 -75 c418 0 536 -3 622 -16 192 -28 364 -113 473 -234 149 -164 227
-395 215 -635 -9 -159 -80 -527 -148 -765 -118 -412 -420 -734 -811 -864 -162
-54 -201 -59 -559 -63 l-336 -5 49 249 c27 136 54 272 59 301 l10 52 253 0
c217 0 263 3 328 19 194 50 340 172 387 325 25 82 95 399 121 555 19 106 20
133 10 189 -25 144 -107 233 -250 272 -33 9 -234 13 -730 15 l-685 4 3 26 c2
15 19 104 38 198 18 93 34 174 34 179 0 5 -8 7 -17 4 -10 -3 -33 -2 -51 2
l-33 7 60 33 c53 29 61 37 66 70 15 89 8 85 125 83 89 -2 116 2 175 23 l70 25
3 -25 3 -24 516 0z m-2311 -17 c-6 -18 -63 -296 -191 -923 -35 -173 -94 -459
-130 -634 -36 -176 -65 -328 -65 -337 0 -10 10 -30 23 -44 l22 -26 604 1 603
0 -6 -52 c-10 -71 -101 -537 -107 -543 -3 -2 -306 -5 -674 -5 -722 -1 -731 -1
-843 52 -142 67 -262 256 -262 413 0 34 -2 37 -22 31 -13 -3 -143 -6 -290 -6
-223 0 -268 -2 -268 -14 0 -8 -16 -28 -35 -45 -30 -26 -44 -31 -87 -31 -45 0
-54 4 -89 39 -34 33 -39 45 -39 83 0 134 167 187 239 76 l24 -38 246 0 c135 0
262 -3 282 -6 l36 -6 31 153 c17 85 67 330 112 544 72 345 270 1322 270 1331
0 2 140 4 311 4 291 0 310 -1 305 -17z m8987 -20 c97 -3 177 -10 177 -15 0
-15 -49 -108 -116 -218 -79 -133 -174 -251 -270 -337 -86 -77 -187 -149 -191
-136 -2 5 14 54 36 109 59 146 121 435 121 561 0 48 7 56 40 48 14 -3 105 -9
203 -12z m453 -7 c27 -13 74 -34 104 -46 30 -12 78 -32 105 -45 28 -13 66 -27
85 -30 48 -10 70 -23 70 -41 0 -21 -51 -92 -71 -99 -20 -7 -69 11 -69 24 0 6
-7 8 -15 5 -9 -4 -15 0 -15 10 0 11 -9 16 -29 16 -45 0 -61 10 -61 36 l0 25
-38 -22 c-54 -31 -76 -21 -69 32 l5 40 -39 -36 c-55 -50 -86 -63 -104 -44 -12
12 -12 21 0 64 8 28 19 69 25 93 9 37 14 42 38 42 16 0 50 -11 78 -24z m476
-186 c-5 -71 -105 -244 -210 -367 -87 -101 -272 -250 -293 -237 -5 3 3 28 17
56 57 113 102 250 148 451 5 20 12 27 31 27 13 0 26 -4 29 -9 10 -15 60 -20
98 -9 22 7 58 33 95 70 65 66 89 71 85 18z m-2832 -65 c0 -20 -45 -41 -105
-50 -27 -4 -63 -15 -80 -25 -16 -10 -60 -26 -97 -36 -66 -18 -68 -19 -197
-155 -119 -124 -131 -141 -131 -174 0 -46 -36 -85 -79 -85 -39 0 -79 36 -87
77 -5 27 -1 37 25 64 28 27 37 31 69 25 37 -6 39 -4 177 135 77 77 151 146
165 153 14 8 56 19 93 25 37 6 84 20 105 30 52 26 62 29 105 30 26 1 37 -3 37
-14z m410 -76 c58 -35 172 -161 222 -245 67 -112 104 -232 123 -394 19 -163
36 -234 76 -316 17 -34 28 -68 24 -74 -4 -7 -35 -30 -69 -52 -53 -35 -67 -39
-104 -35 -58 6 -173 64 -247 124 -112 91 -184 217 -251 439 -45 152 -34 274
38 417 23 46 29 43 87 -47 55 -83 103 -198 145 -342 19 -66 36 -114 37 -109 5
34 -4 163 -17 234 -19 107 -34 151 -96 284 -27 60 -47 115 -44 123 8 20 35 17
76 -7z m-10456 -580 c19 -16 38 -39 41 -50 6 -18 17 -19 174 -19 l168 0 99
-49 c54 -26 176 -89 269 -138 l170 -91 467 -4 c257 -2 471 -7 474 -11 4 -4 2
-18 -4 -32 l-12 -25 -465 0 -465 0 -269 140 -269 140 -168 0 -169 -1 -20 -32
c-13 -20 -35 -37 -62 -46 -37 -13 -45 -13 -88 3 -57 22 -85 63 -85 125 0 37 6
49 39 82 35 35 44 39 89 39 43 0 57 -5 86 -31z m9326 -59 c99 -67 197 -166
216 -218 9 -26 32 -87 51 -136 22 -59 30 -93 24 -99 -7 -7 -14 -2 -20 15 -5
15 -14 29 -20 32 -5 3 -17 30 -27 59 -9 28 -27 73 -40 98 -25 51 -153 176
-221 215 -23 14 -41 30 -38 35 3 5 1 18 -5 29 -9 17 -8 19 7 13 10 -4 43 -23
73 -43z m-4485 10 c-6 -20 -181 -906 -250 -1265 -30 -159 -57 -296 -60 -302
-5 -16 -615 -19 -615 -4 0 5 12 63 26 128 14 65 83 411 155 768 71 358 131
660 134 672 l5 22 305 -2 c266 -2 304 -4 300 -17z m6415 -221 c0 -41 -83 -232
-148 -339 -80 -132 -193 -267 -238 -286 -79 -33 -202 66 -235 190 -18 68 -10
78 98 120 180 70 322 156 437 267 39 38 74 69 79 69 4 0 7 -9 7 -21z m516
-192 c-8 -45 -70 -196 -113 -278 -61 -119 -204 -269 -254 -269 -26 0 -51 30
-45 54 24 102 13 138 -47 154 -39 10 -43 41 -7 58 218 103 353 191 422 274 40
49 52 50 44 7z m-1412 7 c3 -8 2 -12 -4 -9 -6 3 -10 10 -10 16 0 14 7 11 14
-7z m-267 -31 c4 -10 9 -20 12 -23 13 -11 34 -89 65 -241 l33 -160 129 -87
c71 -48 146 -100 166 -115 l36 -28 284 -3 c396 -4 475 -20 596 -116 36 -29 52
-49 52 -66 0 -65 -158 -459 -177 -441 -5 6 12 97 26 132 5 11 13 35 19 53 9
29 9 32 -4 22 -11 -10 -14 -9 -14 4 0 9 -11 21 -24 26 -30 11 -43 30 -21 30 9
0 13 5 10 10 -4 6 -1 19 7 28 12 15 11 16 -4 3 -11 -8 -18 -9 -18 -3 0 6 4 14
10 17 11 7 -6 42 -30 62 -13 11 -13 14 0 22 17 12 20 29 8 54 -7 13 -4 19 14
26 18 6 3 12 -72 25 -143 24 -305 36 -502 36 l-178 0 -152 103 c-84 56 -171
120 -194 142 -40 39 -42 43 -53 135 -7 52 -16 142 -21 200 -5 58 -14 120 -19
138 -10 34 4 47 16 15z m-402 -267 c55 -97 85 -249 106 -543 7 -101 16 -183
20 -183 3 0 50 14 104 30 54 17 104 30 111 30 10 0 14 -15 14 -52 0 -53 28
-309 34 -315 2 -2 56 18 120 46 64 27 118 46 120 42 5 -9 -12 -228 -29 -360
-8 -63 -13 -117 -10 -119 14 -14 289 200 469 366 49 45 94 82 99 82 10 0 1
-201 -14 -319 -5 -41 -7 -76 -4 -79 14 -15 245 237 320 351 21 31 40 55 43 53
2 -3 -1 -42 -6 -88 -6 -46 -14 -109 -17 -140 -5 -48 -14 -68 -50 -115 -24 -32
-55 -69 -70 -83 l-28 -25 7 58 6 58 -78 -68 c-115 -99 -336 -253 -363 -253 -4
0 6 40 21 88 15 49 31 103 35 121 l7 33 -63 -36 c-170 -98 -449 -224 -469
-211 -4 3 -4 22 1 44 11 49 49 355 49 394 l0 29 -54 -49 c-60 -55 -165 -128
-172 -120 -3 3 -1 40 5 82 14 99 15 335 1 335 -6 0 -52 -31 -103 -68 -50 -38
-103 -76 -117 -85 l-25 -16 -1 372 c-1 407 -11 556 -48 690 -26 95 -17 103 29
23z m1446 -46 c4 -19 7 -30 8 -25 1 6 15 18 32 27 24 14 33 15 50 5 10 -6 22
-20 25 -29 6 -20 19 -23 29 -8 10 16 65 12 72 -5 6 -17 -23 -101 -37 -110 -5
-3 -31 3 -57 14 -63 27 -126 40 -188 41 -80 1 -85 9 -41 75 34 51 40 56 69 53
28 -3 33 -8 38 -38z m-171 -156 c156 -1 198 -4 264 -22 95 -26 156 -60 192
-107 41 -54 24 -59 -28 -9 -39 37 -60 48 -120 63 -99 26 -130 30 -298 36 -205
8 -226 11 -226 36 0 14 4 17 16 12 8 -4 98 -8 200 -9z m-1420 -220 c-112 -324
-217 -645 -320 -969 -130 -412 -145 -456 -185 -540 -43 -88 -176 -240 -797
-902 -114 -123 -208 -227 -208 -233 0 -5 7 -10 16 -10 31 0 429 -133 446 -149
9 -9 118 -169 244 -356 125 -187 231 -341 236 -343 4 -2 8 -8 8 -13 0 -5 -11
-2 -24 6 -13 9 -39 17 -57 19 -19 2 -54 13 -79 25 -41 19 -35 21 20 5 14 -4
-43 88 -176 288 -108 161 -204 301 -213 310 -9 10 -107 49 -218 87 -111 38
-211 75 -223 81 -18 10 -26 4 -73 -47 -29 -32 -69 -76 -89 -98 -21 -22 135
219 345 535 414 623 553 841 669 1050 42 74 223 429 402 789 180 359 330 651
332 648 3 -3 -23 -85 -56 -183z m1727 -260 c-3 -3 -12 -4 -19 -1 -8 3 -5 6 6
6 11 1 17 -2 13 -5z m-789 -220 c-58 -120 -73 -144 -76 -122 -5 39 37 136 93
212 27 36 50 64 52 62 2 -2 -29 -70 -69 -152z m829 34 c-3 -8 -6 -5 -6 6 -1
11 2 17 5 13 3 -3 4 -12 1 -19z m-7919 -115 c-38 -2 -98 -2 -135 0 -38 2 -7 3
67 3 74 0 105 -1 68 -3z m1330 0 c-126 -2 -330 -2 -455 0 -126 1 -23 2 227 2
250 0 353 -1 228 -2z m1825 0 c-7 -2 -21 -2 -30 0 -10 3 -4 5 12 5 17 0 24 -2
18 -5z m74 1 c-3 -3 -12 -4 -19 -1 -8 3 -5 6 6 6 11 1 17 -2 13 -5z m4416 -98
c-10 -13 -20 -22 -22 -20 -4 4 29 44 36 44 2 0 -4 -11 -14 -24z m-9733 -235
c58 -11 134 -29 170 -39 180 -54 747 -251 724 -252 -6 0 -31 7 -55 16 -65 23
-137 33 -143 20 -3 -7 -7 -7 -14 2 -7 10 -11 10 -21 -2 -10 -12 -8 -16 9 -21
12 -4 20 -9 17 -11 -6 -6 -352 107 -355 116 -2 5 -9 7 -16 4 -9 -4 -13 3 -11
19 2 13 0 29 -4 34 -9 15 -91 53 -91 42 0 -5 -5 -9 -11 -9 -5 0 -8 4 -4 9 3 5
1 12 -5 16 -5 3 -10 1 -10 -6 0 -8 -4 -8 -15 1 -8 7 -15 9 -15 5 0 -4 -7 -1
-16 6 -14 11 -18 11 -29 -4 -6 -9 -15 -14 -18 -10 -4 3 1 12 11 19 15 12 14
13 -10 12 -15 -1 -25 -5 -22 -9 2 -4 -3 -9 -11 -13 -20 -7 -19 -26 2 -26 9 0
14 -2 11 -6 -3 -3 -46 3 -94 13 -79 16 -141 18 -564 16 -261 -1 -570 -5 -686
-8 l-212 -7 -4 36 c-8 73 -53 69 707 62 623 -5 689 -7 785 -25z m100 -85 c0
-3 -4 -8 -10 -11 -5 -3 -10 -1 -10 4 0 6 5 11 10 11 6 0 10 -2 10 -4z m7266
-32 c8 -33 2 -46 -91 -190 -104 -162 -395 -619 -461 -724 -148 -237 -198 -305
-226 -308 -16 -2 -28 2 -28 8 0 12 -1 10 418 668 368 576 365 572 374 572 4 0
11 -12 14 -26z m-7083 1 c4 -8 1 -17 -6 -21 -7 -4 -9 -4 -5 1 4 4 3 14 -3 22
-7 8 -8 13 -1 13 5 0 12 -7 15 -15z m667 -185 c18 -12 2 -12 -25 0 -13 6 -15
9 -5 9 8 0 22 -4 30 -9z m320 -113 c124 -44 266 -93 315 -108 104 -32 102 -35
-15 -14 -47 8 -101 15 -120 16 -28 0 -31 2 -15 8 19 8 19 8 -3 15 -12 4 -20
12 -17 17 4 5 -1 10 -9 10 -19 2 -35 5 -38 9 -2 1 -28 4 -59 5 -51 3 -56 1
-52 -16 5 -17 -8 -14 -115 22 -87 30 -119 45 -115 55 3 8 10 11 16 7 5 -3 7
-1 3 5 -3 5 0 12 6 15 7 3 2 4 -11 4 -14 -1 -26 -9 -29 -19 -2 -10 -9 -18 -14
-18 -5 0 -6 5 -2 11 4 8 -1 9 -17 5 -18 -4 -17 -2 5 8 16 7 25 15 20 18 -5 3
-3 3 4 2 6 -2 12 3 12 10 0 8 -6 17 -12 20 -42 19 67 -17 262 -87z m5095 -250
c-36 -196 -152 -651 -245 -960 -44 -147 -80 -269 -80 -271 0 -2 -55 -43 -122
-92 -149 -107 -517 -382 -650 -486 -54 -42 -111 -85 -128 -94 -16 -10 -30 -21
-30 -24 0 -3 150 -43 333 -88 182 -45 607 -150 942 -232 336 -83 682 -166 770
-186 158 -34 218 -52 183 -53 -9 -1 -128 15 -265 34 -136 19 -333 46 -438 59
-330 43 -1035 136 -1175 156 -245 35 -605 90 -619 95 -8 3 -119 -64 -246 -150
-128 -85 -235 -155 -238 -155 -3 0 185 188 417 417 832 823 797 784 984 1090
82 133 312 531 404 697 91 164 221 386 225 383 2 -2 -8 -65 -22 -140z m1599
-19 c108 -198 162 -291 326 -563 235 -390 483 -825 472 -825 -9 0 -262 257
-463 470 -80 85 -244 256 -364 380 -119 124 -233 244 -252 267 l-34 41 35 47
c54 70 110 170 147 263 18 45 36 82 39 82 3 0 45 -73 94 -162z m-6021 -21 c18
-18 79 -77 137 -131 58 -54 96 -96 85 -93 -28 9 -227 35 -960 127 -352 45
-679 86 -728 92 -48 6 -84 14 -81 17 9 10 376 17 967 19 l548 2 32 -33z
m-2643 -217 c-25 -21 -157 -127 -295 -235 -137 -108 -370 -291 -517 -408
l-268 -211 0 -49 c0 -81 -48 -127 -131 -127 -35 0 -47 6 -81 40 -39 38 -40 42
-36 91 9 87 85 139 164 110 l33 -12 393 307 c216 169 447 350 512 403 99 80
130 99 180 113 90 24 96 21 46 -22z m9601 -703 c258 -110 887 -363 1249 -502
470 -180 992 -335 1485 -440 193 -41 216 -49 294 -109 53 -41 174 -151 141
-128 -11 7 -20 6 -34 -4 -21 -15 -40 -9 -30 8 4 6 2 8 -3 5 -6 -4 -19 1 -30
11 -10 9 -12 13 -3 7 13 -9 13 -8 1 7 -7 10 -17 15 -22 13 -4 -3 -30 10 -56
28 -73 52 -79 54 -275 97 -431 95 -509 113 -618 141 -174 46 -591 188 -910
311 -157 61 -341 132 -410 158 -328 125 -822 326 -884 358 -81 42 -254 199
-180 163 22 -11 151 -67 285 -124z m-1492 -164 c387 -555 372 -536 421 -549
364 -97 842 -229 868 -240 34 -14 41 -34 17 -54 -12 -10 -52 -2 -212 44 -198
55 -399 110 -632 171 l-124 32 -167 236 c-92 130 -209 293 -258 361 -90 125
-91 126 -69 141 12 8 27 15 34 15 6 0 61 -71 122 -157z m266 -24 c43 -72 88
-135 99 -140 12 -5 147 -47 301 -94 453 -137 539 -167 544 -189 2 -11 -4 -25
-14 -32 -13 -10 -31 -7 -95 17 -78 28 -607 192 -728 225 l-62 17 -96 150 c-76
119 -93 152 -83 163 6 8 21 14 33 14 18 0 38 -27 101 -131z m-655 -599 c91
-27 149 -49 130 -48 -19 1 -40 6 -47 10 -8 7 -10 3 -6 -11 3 -12 9 -18 14 -15
5 3 9 1 9 -5 0 -20 -38 -21 -110 -1 -123 32 -130 35 -130 43 0 21 -14 63 -24
69 -19 13 -5 9 164 -42z m597 -212 c31 -7 41 -13 31 -19 -18 -10 -96 11 -103
29 -4 10 0 12 11 8 9 -4 37 -11 61 -18z m63 -28 c0 -5 -5 -10 -11 -10 -5 0 -7
5 -4 10 3 6 8 10 11 10 2 0 4 -4 4 -10z m290 -51 l85 -27 -66 2 c-37 0 -65 3
-64 6 2 4 -5 12 -17 19 -11 7 -17 8 -13 2 10 -17 2 -13 -36 15 l-34 25 30 -7
c17 -4 68 -20 115 -35z m486 -146 c-7 -7 -65 7 -71 17 -3 4 13 3 35 -2 23 -6
39 -13 36 -15z m3609 -3 c10 -11 16 -20 13 -20 -3 0 -13 9 -23 20 -10 11 -16
20 -13 20 3 0 13 -9 23 -20z m-3528 -16 c-3 -3 -12 -4 -19 -1 -8 3 -5 6 6 6
11 1 17 -2 13 -5z m5469 -3995 c146 -27 256 -136 283 -282 34 -183 -94 -362
-283 -396 -77 -14 -295 -14 -371 0 -147 27 -257 136 -284 282 -32 177 89 355
269 393 70 16 308 17 386 3z"/>
<path d="M12148 15863 c79 -2 205 -2 280 0 75 1 11 3 -143 3 -154 0 -216 -2
-137 -3z"/>
<path d="M13645 15305 c11 -9 29 -21 40 -26 l20 -10 -20 16 c-11 9 -29 21 -40
26 l-20 10 20 -16z"/>
<path d="M13925 15116 c17 -14 50 -40 75 -57 35 -23 38 -25 15 -5 -16 14 -50
40 -75 57 -35 23 -38 25 -15 5z"/>
<path d="M14070 15006 c0 -2 8 -10 18 -17 15 -13 16 -12 3 4 -13 16 -21 21
-21 13z"/>
<path d="M15351 14514 c0 -11 3 -14 6 -6 3 7 2 16 -1 19 -3 4 -6 -2 -5 -13z"/>
<path d="M9878 15263 c7 -3 16 -2 19 1 4 3 -2 6 -13 5 -11 0 -14 -3 -6 -6z"/>
<path d="M9738 15233 c7 -3 16 -2 19 1 4 3 -2 6 -13 5 -11 0 -14 -3 -6 -6z"/>
<path d="M9688 15223 c7 -3 16 -2 19 1 4 3 -2 6 -13 5 -11 0 -14 -3 -6 -6z"/>
<path d="M13023 14583 c26 -2 67 -2 90 0 23 2 2 3 -48 3 -49 0 -68 -1 -42 -3z"/>
<path d="M13168 14583 c7 -3 16 -2 19 1 4 3 -2 6 -13 5 -11 0 -14 -3 -6 -6z"/>
<path d="M10609 14366 c-31 -18 -85 -54 -120 -80 -62 -46 -63 -46 -31 -46 36
0 74 17 142 64 25 17 72 45 105 63 l60 33 -50 0 c-39 0 -62 -7 -106 -34z"/>
<path d="M12004 10423 l-30 -188 96 -7 c52 -4 101 -6 108 -3 10 4 192 365 192
381 0 2 -76 4 -168 4 l-168 0 -30 -187z"/>
<path d="M12341 10424 c-50 -102 -91 -191 -91 -196 0 -16 196 -3 249 16 154
56 235 215 158 312 -29 38 -76 54 -155 54 l-69 0 -92 -186z"/>
<path d="M11534 9633 l-51 -4 -37 -182 c-20 -100 -39 -190 -42 -199 -5 -17 10
-18 225 -18 l231 0 0 109 c0 94 3 112 21 135 42 53 49 38 49 -109 l0 -135 173
0 c94 0 189 3 210 6 l38 7 -2 129 -1 129 38 55 c32 46 36 57 24 64 -29 19 -83
23 -174 13 -50 -5 -92 -6 -94 -1 -2 4 -21 8 -42 8 -27 0 -42 -6 -54 -22 l-17
-23 11 23 11 23 -132 -3 -132 -3 -36 -107 c-20 -59 -39 -110 -43 -114 -5 -4
-8 45 -8 109 l0 117 -57 -2 c-32 -1 -81 -3 -109 -5z"/>
<path d="M12438 9526 c-26 -40 -28 -51 -28 -145 0 -99 1 -101 20 -91 36 19 71
84 76 141 5 54 -13 130 -32 136 -5 2 -21 -17 -36 -41z"/>
<path d="M3355 11581 c-3 -5 -2 -12 3 -15 5 -3 9 1 9 9 0 17 -3 19 -12 6z"/>
<path d="M3385 11580 c-3 -5 -1 -10 4 -10 6 0 11 5 11 10 0 6 -2 10 -4 10 -3
0 -8 -4 -11 -10z"/>
<path d="M15605 8900 c-3 -5 -3 -10 0 -10 3 0 -2 -14 -12 -31 -13 -24 -15 -33
-5 -36 6 -3 12 -12 12 -20 0 -39 11 0 15 51 4 56 2 65 -10 46z"/>
<path d="M15508 8894 c-3 -3 -1 -16 5 -29 13 -25 47 -52 47 -35 0 5 -4 10 -10
10 -5 0 -10 6 -10 13 -1 16 -25 48 -32 41z"/>
<path d="M15530 8769 c0 -5 5 -7 10 -4 6 3 10 8 10 11 0 2 -4 4 -10 4 -5 0
-10 -5 -10 -11z"/>
<path d="M15590 8772 c0 -6 -8 -9 -17 -6 -13 4 -14 3 -5 -3 7 -5 10 -17 6 -26
-3 -9 -3 -17 0 -17 9 0 28 52 21 58 -3 3 -5 0 -5 -6z"/>
<path d="M5544 8142 c3 -5 0 -13 -6 -15 -9 -4 -10 -6 -1 -6 17 -1 25 16 12 25
-7 4 -9 3 -5 -4z"/>
<path d="M5864 8041 c21 -23 26 -26 26 -11 0 5 -10 15 -22 21 -23 12 -23 12
-4 -10z"/>
<path d="M17566 5412 c-3 -5 1 -9 9 -9 8 0 12 4 9 9 -3 4 -7 8 -9 8 -2 0 -6
-4 -9 -8z"/>
<path d="M19462 1178 c-30 -30 -3 -82 40 -76 29 4 47 50 28 72 -15 19 -51 21
-68 4z"/>
<path d="M19225 1076 c-48 -21 -59 -40 -35 -61 18 -17 21 -17 56 0 28 13 42
15 60 6 42 -19 30 -39 -19 -34 -105 12 -165 -80 -97 -149 28 -27 35 -29 78
-24 26 3 68 5 95 5 l47 0 -1 83 c0 108 -14 148 -59 170 -41 21 -83 22 -125 4z
m100 -157 c10 -16 -25 -49 -52 -49 -25 0 -39 21 -29 45 6 17 71 21 81 4z"/>
<path d="M19460 950 l0 -130 35 0 35 0 0 130 0 130 -35 0 -35 0 0 -130z"/>
</g>
</svg>
